# xmcd CD database file
#
# Track frame offsets:
#	150
#	15133
#	42670
#	59320
#	78830
#	97643
#	119798
#	150793
#	172805
#	191390
#	212830
#	230270
#	243615
#	260710
#	280278
#
# Disc length: 4001 seconds
#
# Revision: 5
# Processed by: cddbd v1.5.2PL0 Copyright (c) Steve Scherf et al.
# Submitted via: CDex 1.70beta2
#
DISCID=ba0f9f0f
DTITLE=Fleetwood Mac - Greatest Hits Live
DYEAR=1991
DGENRE=Rock
TTITLE0=Oh Well
TTITLE1=Black Magic Woman
TTITLE2=World in Harmony
TTITLE3=Like It This way
TTITLE4=Only You
TTITLE5=Jumpin' At Shadows
TTITLE6=Can't Hold On
TTITLE7=Keep A-Knocking
TTITLE8=Red Hot Mama
TTITLE9=Madison Blues
TTITLE10=Stranger Blues
TTITLE11=Great Balls Of Fire
TTITLE12=Got To Move
TTITLE13=Oh Baby
TTITLE14=Teenage Darling
EXTD=YEAR: 1991
EXTT0=
EXTT1=
EXTT2=
EXTT3=
EXTT4=
EXTT5=
EXTT6=
EXTT7=
EXTT8=
EXTT9=
EXTT10=
EXTT11=
EXTT12=
EXTT13=
EXTT14=
PLAYORDER=
